<svg width="42" height="42" viewBox="0 0 42 42" fill="none" xmlns="http://www.w3.org/2000/svg">
<path d="M31.8493 25.5626C31.849 28.1523 31.1975 30.7004 29.9545 32.972C28.7114 35.244 26.9168 37.1667 24.736 38.5633C22.5551 39.9595 20.058 40.7852 17.4744 40.9634C14.8909 41.1418 12.304 40.6676 9.95185 39.5841C7.59969 38.5006 5.55788 36.8431 4.0143 34.7635C2.47075 32.6842 1.47506 30.2499 1.11889 27.6849C0.762716 25.1198 1.05751 22.5064 1.97613 20.0851C2.89476 17.6638 4.40768 15.5125 6.37566 13.8292" stroke="#195D66" stroke-linecap="round" stroke-linejoin="round"/>
<path d="M15.7314 19.8505C15.4051 20.5242 15.2362 21.2633 15.2374 22.0119C15.2333 22.6334 15.3527 23.2496 15.5887 23.8246C15.8246 24.3996 16.1724 24.922 16.6119 25.3616C17.0514 25.8011 17.5739 26.1489 18.1489 26.3849C18.7239 26.6208 19.3401 26.7402 19.9616 26.7361C20.5922 26.7361 21.1969 26.9866 21.6428 27.4325C22.0886 27.8784 22.3391 28.4831 22.3391 29.1136V39.828" stroke="#195D66" stroke-linecap="round" stroke-linejoin="round"/>
<path d="M1.18848 27.9403H6.90076C7.5355 27.9238 8.16715 28.0347 8.75838 28.2662C9.34962 28.4978 9.88852 28.8454 10.3432 29.2886C10.7979 29.7318 11.1593 30.2615 11.4059 30.8466C11.6526 31.4318 11.7796 32.0604 11.7793 32.6956V40.2605" stroke="#195D66" stroke-linecap="round" stroke-linejoin="round"/>
<path d="M40.3705 5.39947L37.2828 4.34964C37.066 4.27591 36.8308 4.27523 36.6134 4.34773C36.3957 4.4202 36.208 4.56186 36.0786 4.75105L33.8246 8.24017L21.4738 2.06472C20.4977 1.48944 19.4065 1.13702 18.2782 1.03267C17.15 0.928329 16.0127 1.07464 14.9476 1.46114C13.8825 1.84765 12.916 2.46477 12.1173 3.26838C11.3185 4.07199 10.7072 5.04222 10.3272 6.10964C10.2225 6.38655 10.1775 6.68248 10.1952 6.978C10.2129 7.27353 10.2929 7.56199 10.4299 7.82441C10.567 8.08684 10.7579 8.3173 10.9903 8.50072C11.2228 8.68413 11.4913 8.81631 11.7784 8.88859L19.8373 11.4823L20.6401 11.7602L22.1531 16.9475C22.2017 17.1282 22.2951 17.2936 22.4247 17.4286C22.5542 17.5635 22.7157 17.6635 22.8942 17.7195L26.5377 18.8928C26.7237 18.9534 26.9222 18.9652 27.114 18.9271C27.3059 18.889 27.4848 18.8023 27.6336 18.6752C27.7823 18.5482 27.8959 18.385 27.9636 18.2015C28.0312 18.0179 28.0506 17.82 28.0198 17.6268L27.217 13.7672H27.7419L35.6154 16.33C36.1317 16.5079 36.6971 16.4746 37.1886 16.2375C37.6802 16.0004 38.0581 15.5786 38.24 15.064L41.0189 6.51105C41.0495 6.28006 41.0026 6.04548 40.8852 5.84425C40.7676 5.643 40.5866 5.48651 40.3705 5.39947Z" stroke="#195D66" stroke-linecap="round" stroke-linejoin="round"/>
</svg>
