<svg width="38" height="38" viewBox="0 0 38 38" fill="none" xmlns="http://www.w3.org/2000/svg">
<path d="M29.2854 11.2889C32.1258 11.2889 34.4283 8.98635 34.4283 6.14603C34.4283 3.30571 32.1258 1.00317 29.2854 1.00317C26.4451 1.00317 24.1426 3.30571 24.1426 6.14603C24.1426 8.98635 26.4451 11.2889 29.2854 11.2889Z" stroke="#195D66" stroke-linecap="round" stroke-linejoin="round"/>
<path d="M36.9997 24.1465V21.5751C36.9997 17.3145 33.546 13.8606 29.2854 13.8606C26.3801 13.8606 23.8499 15.4666 22.5342 17.8393" stroke="#195D66" stroke-linecap="round" stroke-linejoin="round"/>
<path d="M8.71366 11.2889C11.554 11.2889 13.8565 8.98635 13.8565 6.14603C13.8565 3.30571 11.554 1.00317 8.71366 1.00317C5.87334 1.00317 3.5708 3.30571 3.5708 6.14603C3.5708 8.98635 5.87334 11.2889 8.71366 11.2889Z" stroke="#195D66" stroke-linecap="round" stroke-linejoin="round"/>
<path d="M0.999512 24.1465V21.5751C0.999512 17.3145 4.4534 13.8606 8.71397 13.8606C11.6193 13.8606 14.1494 15.4666 15.4651 17.8393" stroke="#195D66" stroke-linecap="round" stroke-linejoin="round"/>
<path d="M19.0022 26.712C21.8426 26.712 24.1451 24.4094 24.1451 21.5691C24.1451 18.7288 21.8426 16.4263 19.0022 16.4263C16.1619 16.4263 13.8594 18.7288 13.8594 21.5691C13.8594 24.4094 16.1619 26.712 19.0022 26.712Z" stroke="#195D66" stroke-linecap="round" stroke-linejoin="round"/>
<path d="M26.717 36.997C26.717 32.7364 23.2631 29.2827 19.0025 29.2827C14.7419 29.2827 11.2881 32.7364 11.2881 36.997" stroke="#195D66" stroke-linecap="round" stroke-linejoin="round"/>
</svg>
