<svg width="40" height="40" viewBox="0 0 40 40" fill="none" xmlns="http://www.w3.org/2000/svg">
<path d="M28.2891 12.3345L28.2891 16.231" stroke="#195D66" stroke-linecap="round" stroke-linejoin="round"/>
<path d="M28.2866 7.60515C28.0911 7.60515 27.9326 7.44524 27.9326 7.24801C27.9326 7.05075 28.0911 6.89087 28.2866 6.89087" stroke="#195D66" stroke-linecap="round" stroke-linejoin="round"/>
<path d="M28.2925 7.60515C28.488 7.60515 28.6467 7.44524 28.6467 7.24801C28.6467 7.05075 28.488 6.89087 28.2925 6.89087" stroke="#195D66" stroke-linecap="round" stroke-linejoin="round"/>
<path d="M2.44678 36.7527H36.7537" stroke="#195D66" stroke-linecap="round" stroke-linejoin="round"/>
<path d="M11.2216 25.0509C14.2813 25.0509 16.7616 22.5706 16.7616 19.5109C16.7616 16.4513 14.2813 13.9709 11.2216 13.9709C8.16198 13.9709 5.68164 16.4513 5.68164 19.5109C5.68164 22.5706 8.16198 25.0509 11.2216 25.0509Z" stroke="#195D66" stroke-linecap="round" stroke-linejoin="round"/>
<path d="M2.44385 36.7575V33.8315C2.44385 28.9835 6.37388 25.0535 11.2219 25.0535C16.0698 25.0535 19.9998 28.9835 19.9998 33.8315V36.7575" stroke="#195D66" stroke-linecap="round" stroke-linejoin="round"/>
<path d="M21.1232 19.1881C22.9543 20.982 25.462 22.088 28.2279 22.088C33.8355 22.088 38.3815 17.5422 38.3815 11.9346C38.3815 6.32706 33.8355 1.78125 28.2279 1.78125C22.7902 1.78125 18.3508 6.05598 18.0869 11.4283" stroke="#195D66" stroke-linecap="round" stroke-linejoin="round"/>
</svg>
