<svg width="19" height="18" viewBox="0 0 19 18" fill="none" xmlns="http://www.w3.org/2000/svg">
<path d="M6.68649 9C6.68649 7.34321 7.97136 5.99976 9.55675 5.99976C11.1422 5.99976 12.4277 7.34321 12.4277 9C12.4277 10.6568 11.1422 12.0002 9.55675 12.0002C7.97136 12.0002 6.68649 10.6568 6.68649 9ZM5.13451 9C5.13451 11.5524 7.11434 13.6214 9.55675 13.6214C11.9992 13.6214 13.979 11.5524 13.979 9C13.979 6.4476 11.9992 4.37861 9.55675 4.37861C7.11434 4.37861 5.13451 6.4476 5.13451 9ZM13.1206 4.19537C13.1205 4.40897 13.1811 4.6178 13.2945 4.79546C13.408 4.97311 13.5694 5.1116 13.7582 5.19342C13.947 5.27525 14.1548 5.29672 14.3553 5.25513C14.5558 5.21354 14.74 5.11076 14.8845 4.95978C15.0291 4.8088 15.1276 4.6164 15.1676 4.40692C15.2075 4.19744 15.1872 3.98028 15.109 3.7829C15.0309 3.58552 14.8985 3.4168 14.7286 3.29805C14.5587 3.17931 14.3589 3.11589 14.1545 3.1158H14.1541C13.8801 3.11593 13.6174 3.2297 13.4236 3.43212C13.2298 3.63454 13.1208 3.90905 13.1206 4.19537V4.19537ZM6.07744 16.3258C5.23778 16.2858 4.78141 16.1397 4.47812 16.0162C4.07604 15.8526 3.78915 15.6578 3.48751 15.343C3.18588 15.0282 2.99917 14.7287 2.84332 14.3085C2.7251 13.9917 2.58523 13.5146 2.54706 12.6372C2.50531 11.6885 2.49698 11.4035 2.49698 9.00007C2.49698 6.59664 2.506 6.31246 2.54706 5.36299C2.5853 4.48553 2.7262 4.00939 2.84332 3.69166C2.99986 3.27146 3.18629 2.97166 3.48751 2.65644C3.78873 2.34122 4.07535 2.1461 4.47812 1.98324C4.78127 1.85969 5.23778 1.71353 6.07744 1.67364C6.98523 1.63001 7.25792 1.6213 9.55675 1.6213C11.8556 1.6213 12.1286 1.63073 13.0371 1.67364C13.8768 1.7136 14.3324 1.86084 14.6364 1.98324C15.0385 2.1461 15.3254 2.34166 15.627 2.65644C15.9287 2.97122 16.1147 3.27146 16.2712 3.69166C16.3894 4.00846 16.5293 4.48553 16.5675 5.36299C16.6092 6.31246 16.6176 6.59664 16.6176 9.00007C16.6176 11.4035 16.6092 11.6877 16.5675 12.6372C16.5292 13.5146 16.3887 13.9915 16.2712 14.3085C16.1147 14.7287 15.9282 15.0285 15.627 15.343C15.3258 15.6575 15.0385 15.8526 14.6364 16.0162C14.3333 16.1397 13.8768 16.2859 13.0371 16.3258C12.1293 16.3694 11.8566 16.3781 9.55675 16.3781C7.25689 16.3781 6.98495 16.3694 6.07744 16.3258V16.3258ZM6.00613 0.054504C5.08931 0.098136 4.46283 0.250056 3.91571 0.472536C3.3491 0.702288 2.86944 1.01052 2.39012 1.51063C1.9108 2.01074 1.61661 2.5128 1.39675 3.10493C1.18386 3.67704 1.03849 4.33138 0.996735 5.28948C0.954295 6.2491 0.94458 6.55589 0.94458 9C0.94458 11.4441 0.954295 11.7509 0.996735 12.7105C1.03849 13.6687 1.18386 14.323 1.39675 14.8951C1.61661 15.4868 1.91087 15.9895 2.39012 16.4894C2.86937 16.9893 3.3491 17.2971 3.91571 17.5275C4.46386 17.7499 5.08931 17.9019 6.00613 17.9455C6.92487 17.9891 7.21796 18 9.55675 18C11.8955 18 12.1891 17.9898 13.1074 17.9455C14.0243 17.9019 14.6503 17.7499 15.1978 17.5275C15.7641 17.2971 16.2441 16.9895 16.7234 16.4894C17.2027 15.9893 17.4963 15.4868 17.7168 14.8951C17.9296 14.323 18.0757 13.6686 18.1168 12.7105C18.1585 11.7502 18.1682 11.4441 18.1682 9C18.1682 6.55589 18.1585 6.2491 18.1168 5.28948C18.075 4.3313 17.9296 3.67668 17.7168 3.10493C17.4963 2.51316 17.202 2.01154 16.7234 1.51063C16.2448 1.00973 15.7641 0.702288 15.1985 0.472536C14.6503 0.250056 14.0242 0.097416 13.1081 0.054504C12.1898 0.010872 11.8962 0 9.55744 0C7.21865 0 6.92487 0.010152 6.00613 0.054504Z" fill="#195D66"/>
</svg>
