<svg width="96" height="27" viewBox="0 0 96 27" fill="none" xmlns="http://www.w3.org/2000/svg">
<path d="M15.36 5.008V5.488C14.848 5.568 14.336 5.752 13.824 6.04C13.328 6.312 12.824 6.768 12.312 7.408L7.704 13.168L8.52 11.704L14.28 20.056C14.536 20.44 14.808 20.744 15.096 20.968C15.4 21.192 15.784 21.376 16.248 21.52V22C15.816 21.968 15.296 21.952 14.688 21.952C14.08 21.936 13.544 21.928 13.08 21.928C12.792 21.928 12.432 21.936 12 21.952C11.584 21.952 11.056 21.968 10.416 22V21.52C11.008 21.488 11.368 21.392 11.496 21.232C11.64 21.072 11.584 20.808 11.328 20.44L7.848 15.04C7.56 14.592 7.304 14.256 7.08 14.032C6.856 13.792 6.624 13.64 6.384 13.576C6.144 13.496 5.848 13.448 5.496 13.432V12.928C6.168 12.912 6.744 12.76 7.224 12.472C7.72 12.184 8.184 11.792 8.616 11.296L10.608 8.776C11.168 8.088 11.528 7.504 11.688 7.024C11.848 6.528 11.808 6.152 11.568 5.896C11.328 5.64 10.88 5.504 10.224 5.488V5.008C10.56 5.024 10.888 5.04 11.208 5.056C11.544 5.056 11.88 5.064 12.216 5.08C12.568 5.08 12.912 5.08 13.248 5.08C13.68 5.08 14.072 5.072 14.424 5.056C14.792 5.04 15.104 5.024 15.36 5.008ZM7.488 5.008V5.488C6.96 5.504 6.56 5.568 6.288 5.68C6.016 5.776 5.832 5.968 5.736 6.256C5.64 6.528 5.592 6.96 5.592 7.552V19.456C5.592 20.032 5.64 20.464 5.736 20.752C5.832 21.04 6.016 21.232 6.288 21.328C6.56 21.424 6.96 21.488 7.488 21.52V22C7.104 21.968 6.616 21.952 6.024 21.952C5.448 21.936 4.856 21.928 4.248 21.928C3.576 21.928 2.944 21.936 2.352 21.952C1.776 21.952 1.304 21.968 0.936 22V21.52C1.48 21.488 1.888 21.424 2.16 21.328C2.432 21.232 2.608 21.04 2.688 20.752C2.784 20.464 2.832 20.032 2.832 19.456V7.552C2.832 6.96 2.784 6.528 2.688 6.256C2.608 5.968 2.424 5.776 2.136 5.68C1.864 5.568 1.464 5.504 0.936 5.488V5.008C1.304 5.024 1.776 5.04 2.352 5.056C2.944 5.072 3.576 5.08 4.248 5.08C4.856 5.08 5.448 5.072 6.024 5.056C6.616 5.04 7.104 5.024 7.488 5.008ZM20.2273 22.168C19.5553 22.168 18.9793 22.04 18.4993 21.784C18.0193 21.528 17.6593 21.176 17.4193 20.728C17.1793 20.28 17.0593 19.768 17.0593 19.192C17.0593 18.488 17.2193 17.92 17.5393 17.488C17.8593 17.04 18.2673 16.68 18.7633 16.408C19.2753 16.136 19.8113 15.912 20.3713 15.736C20.9473 15.544 21.4833 15.368 21.9793 15.208C22.4913 15.032 22.9073 14.832 23.2273 14.608C23.5633 14.384 23.7313 14.088 23.7313 13.72V12.088C23.7313 11.512 23.6353 11.056 23.4433 10.72C23.2673 10.368 23.0193 10.12 22.6993 9.976C22.3953 9.832 22.0273 9.76 21.5953 9.76C21.2273 9.76 20.8353 9.816 20.4193 9.928C20.0033 10.024 19.6753 10.224 19.4353 10.528C19.7873 10.624 20.0753 10.816 20.2993 11.104C20.5393 11.376 20.6593 11.72 20.6593 12.136C20.6593 12.584 20.5073 12.936 20.2033 13.192C19.9153 13.448 19.5473 13.576 19.0993 13.576C18.6033 13.576 18.2353 13.424 17.9953 13.12C17.7553 12.8 17.6353 12.432 17.6353 12.016C17.6353 11.584 17.7393 11.232 17.9473 10.96C18.1713 10.688 18.4593 10.432 18.8113 10.192C19.1953 9.936 19.6833 9.72 20.2753 9.544C20.8833 9.368 21.5553 9.28 22.2913 9.28C22.9793 9.28 23.5713 9.36 24.0673 9.52C24.5793 9.664 25.0033 9.904 25.3393 10.24C25.7393 10.608 26.0033 11.072 26.1313 11.632C26.2593 12.176 26.3233 12.84 26.3233 13.624V20.248C26.3233 20.648 26.3713 20.936 26.4673 21.112C26.5793 21.272 26.7553 21.352 26.9953 21.352C27.1553 21.352 27.3073 21.312 27.4513 21.232C27.6113 21.152 27.7953 21.032 28.0033 20.872L28.2433 21.28C27.9073 21.552 27.5633 21.768 27.2113 21.928C26.8753 22.088 26.4433 22.168 25.9153 22.168C25.4033 22.168 24.9873 22.088 24.6673 21.928C24.3473 21.768 24.1073 21.536 23.9473 21.232C23.8033 20.928 23.7313 20.552 23.7313 20.104C23.3153 20.776 22.8193 21.288 22.2433 21.64C21.6673 21.992 20.9953 22.168 20.2273 22.168ZM21.3793 21.016C21.8273 21.016 22.2433 20.888 22.6273 20.632C23.0273 20.376 23.3953 19.992 23.7313 19.48V14.704C23.5553 14.96 23.2993 15.184 22.9633 15.376C22.6273 15.552 22.2673 15.736 21.8833 15.928C21.4993 16.12 21.1313 16.344 20.7793 16.6C20.4433 16.84 20.1633 17.152 19.9393 17.536C19.7153 17.92 19.6033 18.408 19.6033 19C19.6033 19.624 19.7633 20.12 20.0833 20.488C20.4033 20.84 20.8353 21.016 21.3793 21.016ZM33.1605 5.656V9.64H36.4725V10.12H33.1605V19.552C33.1605 20.208 33.2805 20.672 33.5205 20.944C33.7605 21.216 34.1045 21.352 34.5525 21.352C34.9685 21.352 35.3365 21.184 35.6565 20.848C35.9925 20.512 36.2805 19.944 36.5205 19.144L36.9765 19.312C36.7845 20.16 36.4405 20.88 35.9445 21.472C35.4645 22.048 34.7525 22.336 33.8085 22.336C33.2645 22.336 32.8085 22.264 32.4405 22.12C32.0725 21.992 31.7525 21.8 31.4805 21.544C31.1285 21.176 30.8885 20.736 30.7605 20.224C30.6325 19.712 30.5685 19.032 30.5685 18.184V10.12H28.3605V9.64H30.5685V6.136C31.0645 6.12 31.5285 6.08 31.9605 6.016C32.3925 5.936 32.7925 5.816 33.1605 5.656ZM40.8054 22.168C40.1334 22.168 39.5574 22.04 39.0774 21.784C38.5974 21.528 38.2374 21.176 37.9974 20.728C37.7574 20.28 37.6374 19.768 37.6374 19.192C37.6374 18.488 37.7974 17.92 38.1174 17.488C38.4374 17.04 38.8454 16.68 39.3414 16.408C39.8534 16.136 40.3894 15.912 40.9494 15.736C41.5254 15.544 42.0614 15.368 42.5574 15.208C43.0694 15.032 43.4854 14.832 43.8054 14.608C44.1414 14.384 44.3094 14.088 44.3094 13.72V12.088C44.3094 11.512 44.2134 11.056 44.0214 10.72C43.8454 10.368 43.5974 10.12 43.2774 9.976C42.9734 9.832 42.6054 9.76 42.1734 9.76C41.8054 9.76 41.4134 9.816 40.9974 9.928C40.5814 10.024 40.2534 10.224 40.0134 10.528C40.3654 10.624 40.6534 10.816 40.8774 11.104C41.1174 11.376 41.2374 11.72 41.2374 12.136C41.2374 12.584 41.0854 12.936 40.7814 13.192C40.4934 13.448 40.1254 13.576 39.6774 13.576C39.1814 13.576 38.8134 13.424 38.5734 13.12C38.3334 12.8 38.2134 12.432 38.2134 12.016C38.2134 11.584 38.3174 11.232 38.5254 10.96C38.7494 10.688 39.0374 10.432 39.3894 10.192C39.7734 9.936 40.2614 9.72 40.8534 9.544C41.4614 9.368 42.1334 9.28 42.8694 9.28C43.5574 9.28 44.1494 9.36 44.6454 9.52C45.1574 9.664 45.5814 9.904 45.9174 10.24C46.3174 10.608 46.5814 11.072 46.7094 11.632C46.8374 12.176 46.9014 12.84 46.9014 13.624V20.248C46.9014 20.648 46.9494 20.936 47.0454 21.112C47.1574 21.272 47.3334 21.352 47.5734 21.352C47.7334 21.352 47.8854 21.312 48.0294 21.232C48.1894 21.152 48.3734 21.032 48.5814 20.872L48.8214 21.28C48.4854 21.552 48.1414 21.768 47.7894 21.928C47.4534 22.088 47.0214 22.168 46.4934 22.168C45.9814 22.168 45.5654 22.088 45.2454 21.928C44.9254 21.768 44.6854 21.536 44.5254 21.232C44.3814 20.928 44.3094 20.552 44.3094 20.104C43.8934 20.776 43.3974 21.288 42.8214 21.64C42.2454 21.992 41.5734 22.168 40.8054 22.168ZM41.9574 21.016C42.4054 21.016 42.8214 20.888 43.2054 20.632C43.6054 20.376 43.9734 19.992 44.3094 19.48V14.704C44.1334 14.96 43.8774 15.184 43.5414 15.376C43.2054 15.552 42.8454 15.736 42.4614 15.928C42.0774 16.12 41.7094 16.344 41.3574 16.6C41.0214 16.84 40.7414 17.152 40.5174 17.536C40.2934 17.92 40.1814 18.408 40.1814 19C40.1814 19.624 40.3414 20.12 40.6614 20.488C40.9814 20.84 41.4134 21.016 41.9574 21.016ZM60.7706 3.184V19.384C60.7706 20.104 60.8906 20.64 61.1306 20.992C61.3866 21.328 61.8426 21.496 62.4986 21.496V22C62.0026 21.952 61.5066 21.928 61.0106 21.928C60.4666 21.928 59.9546 21.952 59.4746 22C59.0106 22.048 58.5786 22.136 58.1786 22.264V6.064C58.1786 5.344 58.0506 4.816 57.7946 4.48C57.5546 4.128 57.1066 3.952 56.4506 3.952V3.448C56.9626 3.496 57.4586 3.52 57.9386 3.52C58.4666 3.52 58.9706 3.496 59.4506 3.448C59.9306 3.384 60.3706 3.296 60.7706 3.184ZM55.3706 9.28C56.0746 9.28 56.7146 9.432 57.2906 9.736C57.8826 10.04 58.2986 10.552 58.5386 11.272L58.2506 11.536C58.0266 10.96 57.6986 10.544 57.2666 10.288C56.8346 10.016 56.3466 9.88 55.8026 9.88C54.8906 9.88 54.1466 10.368 53.5706 11.344C52.9946 12.304 52.7146 13.792 52.7306 15.808C52.7306 17.136 52.8426 18.224 53.0666 19.072C53.2906 19.904 53.6186 20.52 54.0506 20.92C54.4986 21.32 55.0346 21.52 55.6586 21.52C56.2826 21.52 56.8426 21.256 57.3386 20.728C57.8506 20.2 58.1546 19.44 58.2506 18.448L58.4666 18.952C58.3066 20.04 57.9226 20.88 57.3146 21.472C56.7066 22.048 55.8906 22.336 54.8666 22.336C53.8906 22.336 53.0266 22.104 52.2746 21.64C51.5386 21.16 50.9706 20.44 50.5706 19.48C50.1706 18.504 49.9706 17.28 49.9706 15.808C49.9706 14.352 50.2106 13.144 50.6906 12.184C51.1866 11.208 51.8426 10.48 52.6586 10C53.4746 9.52 54.3786 9.28 55.3706 9.28ZM74.9766 9.616V10.096C74.6726 10.144 74.3926 10.304 74.1366 10.576C73.8806 10.832 73.6326 11.28 73.3926 11.92L69.6486 21.952L69.0726 22.528L64.3926 11.464C64.0886 10.84 63.7926 10.464 63.5046 10.336C63.2326 10.192 63.0006 10.12 62.8086 10.12V9.616C63.2086 9.664 63.6326 9.704 64.0806 9.736C64.5286 9.752 64.9926 9.76 65.4726 9.76C66.0166 9.76 66.5606 9.744 67.1046 9.712C67.6646 9.68 68.1846 9.648 68.6646 9.616V10.12C68.2806 10.12 67.9366 10.152 67.6326 10.216C67.3446 10.264 67.1526 10.416 67.0566 10.672C66.9766 10.912 67.0566 11.328 67.2966 11.92L70.2726 19.24L70.1046 19.312L72.5286 12.88C72.7686 12.24 72.8646 11.728 72.8166 11.344C72.7686 10.944 72.6006 10.648 72.3126 10.456C72.0246 10.248 71.6006 10.128 71.0406 10.096V9.616C71.3126 9.632 71.5606 9.648 71.7846 9.664C72.0246 9.664 72.2566 9.672 72.4806 9.688C72.7046 9.688 72.9286 9.688 73.1526 9.688C73.5046 9.688 73.8326 9.68 74.1366 9.664C74.4566 9.648 74.7366 9.632 74.9766 9.616ZM69.6486 21.952L68.7846 24.208C68.6246 24.608 68.4566 24.944 68.2806 25.216C68.1206 25.488 67.9446 25.712 67.7526 25.888C67.5126 26.112 67.2166 26.272 66.8646 26.368C66.5126 26.464 66.1606 26.512 65.8086 26.512C65.4726 26.512 65.1526 26.448 64.8486 26.32C64.5606 26.208 64.3206 26.032 64.1286 25.792C63.9366 25.552 63.8406 25.256 63.8406 24.904C63.8406 24.488 63.9766 24.152 64.2486 23.896C64.5206 23.64 64.8806 23.512 65.3286 23.512C65.7286 23.512 66.0646 23.616 66.3366 23.824C66.6086 24.048 66.7446 24.368 66.7446 24.784C66.7446 25.072 66.6646 25.32 66.5046 25.528C66.3606 25.736 66.1686 25.896 65.9286 26.008C65.9766 26.024 66.0246 26.032 66.0726 26.032C66.1206 26.032 66.1606 26.032 66.1926 26.032C66.6406 26.032 67.0406 25.88 67.3926 25.576C67.7446 25.288 68.0406 24.816 68.2806 24.16L69.1446 21.856L69.6486 21.952ZM80.0886 9.28C80.7286 9.28 81.2806 9.384 81.7446 9.592C82.2246 9.784 82.5686 9.96 82.7766 10.12C83.3046 10.536 83.6326 10.264 83.7606 9.304H84.2886C84.2566 9.752 84.2326 10.296 84.2166 10.936C84.2006 11.56 84.1926 12.392 84.1926 13.432H83.6646C83.5686 12.84 83.4006 12.264 83.1606 11.704C82.9366 11.144 82.6006 10.68 82.1526 10.312C81.7206 9.944 81.1526 9.76 80.4486 9.76C79.9206 9.76 79.4806 9.912 79.1286 10.216C78.7766 10.504 78.6006 10.936 78.6006 11.512C78.6006 11.992 78.7446 12.408 79.0326 12.76C79.3206 13.112 79.6886 13.44 80.1366 13.744C80.6006 14.048 81.0966 14.376 81.6246 14.728C82.2166 15.128 82.7446 15.528 83.2086 15.928C83.6886 16.312 84.0646 16.744 84.3366 17.224C84.6246 17.704 84.7686 18.264 84.7686 18.904C84.7686 19.64 84.5686 20.264 84.1686 20.776C83.7846 21.288 83.2726 21.68 82.6326 21.952C81.9926 22.208 81.2886 22.336 80.5206 22.336C80.1366 22.336 79.7766 22.296 79.4406 22.216C79.1046 22.152 78.7926 22.064 78.5046 21.952C78.3286 21.856 78.1526 21.76 77.9766 21.664C77.8166 21.552 77.6566 21.448 77.4966 21.352C77.3366 21.24 77.1926 21.256 77.0646 21.4C76.9366 21.544 76.8406 21.8 76.7766 22.168H76.2486C76.2806 21.656 76.3046 21.032 76.3206 20.296C76.3366 19.56 76.3446 18.584 76.3446 17.368H76.8726C76.9846 18.248 77.1526 19.024 77.3766 19.696C77.6006 20.368 77.9286 20.896 78.3606 21.28C78.8086 21.648 79.4166 21.832 80.1846 21.832C80.4886 21.832 80.7926 21.768 81.0966 21.64C81.4006 21.496 81.6486 21.272 81.8406 20.968C82.0486 20.664 82.1526 20.256 82.1526 19.744C82.1526 19.04 81.9046 18.464 81.4086 18.016C80.9286 17.552 80.3046 17.064 79.5366 16.552C78.9926 16.168 78.4726 15.792 77.9766 15.424C77.4966 15.04 77.1046 14.616 76.8006 14.152C76.4966 13.672 76.3446 13.104 76.3446 12.448C76.3446 11.728 76.5126 11.136 76.8486 10.672C77.2006 10.208 77.6646 9.864 78.2406 9.64C78.8166 9.4 79.4326 9.28 80.0886 9.28ZM89.3561 3.568C89.8521 3.568 90.2681 3.728 90.6041 4.048C90.9401 4.352 91.1081 4.736 91.1081 5.2C91.1081 5.664 90.9401 6.056 90.6041 6.376C90.2681 6.68 89.8521 6.832 89.3561 6.832C88.8601 6.832 88.4441 6.68 88.1081 6.376C87.7721 6.056 87.6041 5.664 87.6041 5.2C87.6041 4.736 87.7721 4.352 88.1081 4.048C88.4441 3.728 88.8601 3.568 89.3561 3.568ZM90.7961 9.352V19.768C90.7961 20.44 90.9241 20.896 91.1801 21.136C91.4521 21.376 91.9001 21.496 92.5241 21.496V22C92.2521 21.984 91.8281 21.968 91.2521 21.952C90.6921 21.92 90.1161 21.904 89.5241 21.904C88.9641 21.904 88.3881 21.92 87.7961 21.952C87.2041 21.968 86.7641 21.984 86.4761 22V21.496C87.1001 21.496 87.5401 21.376 87.7961 21.136C88.0681 20.896 88.2041 20.44 88.2041 19.768V12.232C88.2041 11.512 88.0841 10.984 87.8441 10.648C87.6041 10.296 87.1481 10.12 86.4761 10.12V9.616C86.9881 9.664 87.4841 9.688 87.9641 9.688C88.5081 9.688 89.0121 9.664 89.4761 9.616C89.9561 9.552 90.3961 9.464 90.7961 9.352Z" fill="white"/>
</svg>
