<svg width="40" height="40" viewBox="0 0 40 40" fill="none" xmlns="http://www.w3.org/2000/svg">
<path d="M30.2854 12.2889C33.1258 12.2889 35.4283 9.98635 35.4283 7.14603C35.4283 4.30571 33.1258 2.00317 30.2854 2.00317C27.4451 2.00317 25.1426 4.30571 25.1426 7.14603C25.1426 9.98635 27.4451 12.2889 30.2854 12.2889Z" stroke="#195D66" stroke-linecap="round" stroke-linejoin="round"/>
<path d="M37.9997 25.1465V22.5751C37.9997 18.3145 34.546 14.8606 30.2854 14.8606C27.3801 14.8606 24.8499 16.4666 23.5342 18.8393" stroke="#195D66" stroke-linecap="round" stroke-linejoin="round"/>
<path d="M9.71366 12.2889C12.554 12.2889 14.8565 9.98635 14.8565 7.14603C14.8565 4.30571 12.554 2.00317 9.71366 2.00317C6.87334 2.00317 4.5708 4.30571 4.5708 7.14603C4.5708 9.98635 6.87334 12.2889 9.71366 12.2889Z" stroke="#195D66" stroke-linecap="round" stroke-linejoin="round"/>
<path d="M1.99951 25.1465V22.5751C1.99951 18.3145 5.4534 14.8606 9.71397 14.8606C12.6193 14.8606 15.1494 16.4666 16.4651 18.8393" stroke="#195D66" stroke-linecap="round" stroke-linejoin="round"/>
<path d="M20.0022 27.712C22.8426 27.712 25.1451 25.4094 25.1451 22.5691C25.1451 19.7288 22.8426 17.4263 20.0022 17.4263C17.1619 17.4263 14.8594 19.7288 14.8594 22.5691C14.8594 25.4094 17.1619 27.712 20.0022 27.712Z" stroke="#195D66" stroke-linecap="round" stroke-linejoin="round"/>
<path d="M27.717 37.997C27.717 33.7364 24.2631 30.2827 20.0025 30.2827C15.7419 30.2827 12.2881 33.7364 12.2881 37.997" stroke="#195D66" stroke-linecap="round" stroke-linejoin="round"/>
</svg>
