<svg width="34" height="34" viewBox="0 0 34 34" fill="none" xmlns="http://www.w3.org/2000/svg">
<path d="M28.5434 1.58499C30.9026 0.922474 33.0774 3.0973 32.4149 5.45636L26.9803 24.807C26.6843 25.8609 25.8606 26.6846 24.8067 26.9806L5.45612 32.4152C3.09706 33.0775 0.92223 30.9029 1.58474 28.5438L7.01923 9.19313C7.31523 8.13916 8.13892 7.31547 9.19289 7.01947L28.5434 1.58499Z" stroke="#195D66" stroke-linecap="round" stroke-linejoin="round"/>
<path d="M13.2544 20.7452C15.323 22.8139 18.677 22.8139 20.7456 20.7452C22.8143 18.6766 22.8143 15.3226 20.7456 13.2539C18.677 11.1853 15.323 11.1853 13.2544 13.2539C11.1857 15.3226 11.1857 18.6766 13.2544 20.7452Z" stroke="#195D66" stroke-linecap="round" stroke-linejoin="round"/>
</svg>
