<svg width="30" height="30" viewBox="0 0 30 30" fill="none" xmlns="http://www.w3.org/2000/svg">
<path d="M15 1.07178V9.64321" stroke="#195D66" stroke-width="0.75" stroke-linecap="round" stroke-linejoin="round"/>
<path d="M1.07129 9.64307H28.9284V26.7859C28.9284 27.3542 28.7026 27.8994 28.3008 28.3011C27.899 28.7029 27.3539 28.9288 26.7856 28.9288H3.21415C2.64582 28.9288 2.10078 28.7029 1.69892 28.3011C1.29705 27.8994 1.07129 27.3542 1.07129 26.7859V9.64307Z" stroke="#195D66" stroke-width="0.75" stroke-linecap="round" stroke-linejoin="round"/>
<path d="M1.07129 9.64321L4.28558 3.45035C4.6321 2.75236 5.16237 2.16206 5.81935 1.74295C6.47633 1.32385 7.23513 1.0918 8.01415 1.07178H21.9856C22.7829 1.0722 23.5642 1.29504 24.242 1.71523C24.9196 2.13543 25.4664 2.73633 25.8213 3.45035L28.9284 9.64321" stroke="#195D66" stroke-width="0.75" stroke-linecap="round" stroke-linejoin="round"/>
<path d="M20.353 15L13.9322 23.5714L9.64648 20.361" stroke="#195D66" stroke-width="0.75" stroke-linecap="round" stroke-linejoin="round"/>
</svg>
