<svg width="32" height="32" viewBox="0 0 32 32" fill="none" xmlns="http://www.w3.org/2000/svg">
<path d="M14.5657 1H29.1816C30.2687 1 31.15 1.88133 31.15 2.9685V18.6889C31.15 19.7761 30.2687 20.6574 29.1816 20.6574H17.2335" stroke="#195D66" stroke-width="0.811685" stroke-linecap="round" stroke-linejoin="round"/>
<path d="M7.14217 9.11932C9.38428 9.11932 11.2019 7.30175 11.2019 5.05965C11.2019 2.81757 9.38428 1 7.14217 1C4.90009 1 3.08252 2.81757 3.08252 5.05965C3.08252 7.30175 4.90009 9.11932 7.14217 9.11932Z" stroke="#195D66" stroke-width="0.811685" stroke-linecap="round" stroke-linejoin="round"/>
<path d="M20.7124 12.6592C20.7124 11.3432 19.6455 10.2764 18.3295 10.2764H7.14313C3.75038 10.2764 1 13.0267 1 16.4195V21.8719H3.63276L4.51035 31.1482H9.77589L11.7983 15.042H18.3295C19.6455 15.042 20.7124 13.9751 20.7124 12.6592Z" stroke="#195D66" stroke-width="0.811685" stroke-linecap="round" stroke-linejoin="round"/>
</svg>
