<svg width="18" height="18" viewBox="0 0 18 18" fill="none" xmlns="http://www.w3.org/2000/svg">
<path d="M14.8397 2.62692C13.257 0.924287 11.0691 0 8.83472 0C4.08658 0 0.269451 4.03767 0.316001 8.95099C0.316001 10.5077 0.734955 12.0157 1.43321 13.3778L0.2229 17.9993L4.73829 16.7831C5.99515 17.5128 7.39166 17.8533 8.78817 17.8533C13.4898 17.8533 17.3069 13.8157 17.3069 8.90234C17.3069 6.51865 16.4224 4.28091 14.8397 2.62692ZM8.83472 16.3453C7.57786 16.3453 6.321 16.0048 5.25034 15.3237L4.97104 15.1778L2.27112 15.9075L2.96937 13.1346L2.78317 12.8427C0.734955 9.3888 1.71251 4.81602 5.06414 2.67557C8.41577 0.535113 12.745 1.55669 14.7932 5.05925C16.8414 8.56181 15.8638 13.086 12.5122 15.2264C11.4415 15.9561 10.1381 16.3453 8.83472 16.3453ZM12.9312 10.9455L12.4191 10.7023C12.4191 10.7023 11.6743 10.3617 11.2088 10.1185C11.1622 10.1185 11.1157 10.0699 11.0691 10.0699C10.9295 10.0699 10.8364 10.1185 10.7433 10.1672C10.7433 10.1672 10.6967 10.2158 10.045 10.9941C9.99848 11.0914 9.90538 11.1401 9.81228 11.1401H9.76573C9.71918 11.1401 9.62608 11.0914 9.57953 11.0428L9.34678 10.9455C8.83472 10.7023 8.36922 10.4104 7.99682 10.0212C7.90372 9.92392 7.76406 9.82663 7.67096 9.72933C7.34511 9.38881 7.01926 8.99963 6.78651 8.56181L6.73996 8.46452C6.6934 8.41587 6.6934 8.36723 6.64685 8.26993C6.64685 8.17264 6.64685 8.07535 6.6934 8.0267C6.6934 8.0267 6.87961 7.78347 7.01926 7.63753C7.11236 7.54023 7.15891 7.39429 7.25201 7.297C7.34511 7.15106 7.39166 6.95647 7.34511 6.81053C7.29856 6.5673 6.73995 5.25384 6.6003 4.96196C6.5072 4.81602 6.4141 4.76737 6.27445 4.71873H6.1348C6.0417 4.71873 5.90205 4.71873 5.7624 4.71873C5.6693 4.71873 5.5762 4.76737 5.48309 4.76737L5.43654 4.81602C5.34344 4.86467 5.25034 4.96196 5.15724 5.01061C5.06414 5.1079 5.01759 5.20519 4.92449 5.30249C4.59864 5.74031 4.41244 6.27542 4.41244 6.81053C4.41244 7.19971 4.50554 7.58888 4.64519 7.9294L4.69174 8.07535C5.11069 8.99963 5.6693 9.82663 6.4141 10.5563L6.6003 10.7509C6.73995 10.8969 6.87961 10.9941 6.97271 11.1401C7.95027 12.0157 9.06747 12.6481 10.3243 12.9887C10.464 13.0373 10.6502 13.0373 10.7898 13.086C10.9295 13.086 11.1157 13.086 11.2553 13.086C11.4881 13.086 11.7674 12.9887 11.9536 12.8914C12.0933 12.7941 12.1864 12.7941 12.2795 12.6968L12.3726 12.5995C12.4657 12.5022 12.5588 12.4535 12.6519 12.3563C12.745 12.259 12.8381 12.1617 12.8846 12.0644C12.9777 11.8698 13.0243 11.6266 13.0708 11.3833C13.0708 11.286 13.0708 11.1401 13.0708 11.0428C13.0708 11.0428 13.0243 10.9941 12.9312 10.9455Z" fill="#195D66"/>
</svg>
